<?xml version="1.0" encoding="UTF-8" standalone="no"?>
<!-- Created with Inkscape (http://www.inkscape.org/) -->

<svg
   xmlns:dc="http://purl.org/dc/elements/1.1/"
   xmlns:cc="http://creativecommons.org/ns#"
   xmlns:rdf="http://www.w3.org/1999/02/22-rdf-syntax-ns#"
   xmlns:svg="http://www.w3.org/2000/svg"
   xmlns="http://www.w3.org/2000/svg"
   xmlns:xlink="http://www.w3.org/1999/xlink"
   xmlns:sodipodi="http://sodipodi.sourceforge.net/DTD/sodipodi-0.dtd"
   xmlns:inkscape="http://www.inkscape.org/namespaces/inkscape"
   sodipodi:docname="good_news_everyone_2.svg"
   inkscape:version="0.91 r13725"
   version="1.1"
   id="svg2"
   viewBox="0 0 356.58385 325.26914"
   height="91.79818mm"
   width="100.63589mm">
  <sodipodi:namedview
     fit-margin-bottom="0"
     fit-margin-right="0"
     fit-margin-left="0"
     fit-margin-top="0"
     inkscape:window-maximized="1"
     inkscape:window-y="-9"
     inkscape:window-x="-9"
     inkscape:window-height="1003"
     inkscape:window-width="1920"
     showgrid="false"
     inkscape:current-layer="layer1"
     inkscape:document-units="px"
     inkscape:cy="161.40177"
     inkscape:cx="-392.24891"
     inkscape:zoom="0.98994949"
     inkscape:pageshadow="2"
     inkscape:pageopacity="0.0"
     borderopacity="1.0"
     bordercolor="#666666"
     pagecolor="#ffffff"
     id="base" />
  <defs
     id="defs4">
    <linearGradient
       inkscape:collect="always"
       id="linearGradient4235">
      <stop
         style="stop-color:#b4b4b4;stop-opacity:1"
         offset="0"
         id="stop4237" />
      <stop
         style="stop-color:#fffeff;stop-opacity:1"
         offset="1"
         id="stop4239" />
    </linearGradient>
    <filter
       id="filter4249"
       style="color-interpolation-filters:sRGB;"
       inkscape:label="Organic"
       inkscape:menu="Textures"
       inkscape:menu-tooltip="Bulging, knotty, slick 3D surface"
       width="1.3"
       x="-0.15"
       height="1.3"
       y="-0.15">
      <feTurbulence
         id="feTurbulence4251"
         result="result4"
         seed="0"
         numOctaves="5"
         baseFrequency="0.04"
         type="fractalNoise" />
      <feDisplacementMap
         id="feDisplacementMap4253"
         result="result3"
         scale="10"
         xChannelSelector="R"
         yChannelSelector="G"
         in2="result4"
         in="SourceGraphic" />
      <feDiffuseLighting
         id="feDiffuseLighting4255"
         in="result4"
         result="result1"
         surfaceScale="2"
         diffuseConstant="1"
         lighting-color="#e9e6d7">
        <feDistantLight
           id="feDistantLight4257"
           elevation="40"
           azimuth="235" />
      </feDiffuseLighting>
      <feComposite
         id="feComposite4259"
         result="result2"
         in2="result1"
         in="result3"
         operator="in" />
      <feComposite
         k4="0"
         k3="0"
         k2="0"
         id="feComposite4261"
         k1="1.7"
         operator="arithmetic"
         result="result5"
         in2="result1" />
      <feBlend
         result="fbSourceGraphic"
         id="feBlend4263"
         mode="normal"
         in2="result3"
         in="result5" />
      <feColorMatrix
         id="feColorMatrix4270"
         values="0 0 0 -1 0 0 0 0 -1 0 0 0 0 -1 0 0 0 0 1 0"
         in="fbSourceGraphic"
         result="fbSourceGraphicAlpha" />
      <feTurbulence
         in="fbSourceGraphic"
         seed="10"
         baseFrequency="0.01 0.11"
         numOctaves="2"
         type="turbulence"
         id="feTurbulence4272" />
      <feColorMatrix
         values="1 0 0 0 0 0 1 0 0 0 0 0 1 0 0 0 0 0 1.3 0 "
         result="result5"
         id="feColorMatrix4274" />
      <feComposite
         operator="out"
         in="fbSourceGraphic"
         in2="result5"
         id="feComposite4276" />
      <feMorphology
         result="result3"
         radius="1.3"
         operator="dilate"
         id="feMorphology4278" />
      <feTurbulence
         result="result6"
         seed="7"
         type="fractalNoise"
         baseFrequency="0.08 0.05"
         numOctaves="3"
         id="feTurbulence4280" />
      <feGaussianBlur
         result="result7"
         stdDeviation="0.5"
         id="feGaussianBlur4282" />
      <feDisplacementMap
         result="result4"
         scale="3"
         yChannelSelector="G"
         xChannelSelector="R"
         in="result3"
         in2="result7"
         id="feDisplacementMap4284" />
      <feComposite
         k2="1"
         operator="arithmetic"
         result="result2"
         k1="1"
         in="result4"
         in2="result4"
         id="feComposite4286" />
      <feBlend
         result="fbSourceGraphic"
         in="result2"
         mode="normal"
         in2="result4"
         id="feBlend4288" />
      <feColorMatrix
         id="feColorMatrix4290"
         values="0 0 0 -1 0 0 0 0 -1 0 0 0 0 -1 0 0 0 0 1 0"
         in="fbSourceGraphic"
         result="fbSourceGraphicAlpha" />
      <feTurbulence
         in="fbSourceGraphic"
         type="fractalNoise"
         numOctaves="10"
         baseFrequency="0.12 0.02"
         seed="10"
         id="feTurbulence4292" />
      <feColorMatrix
         result="result5"
         values="1 0 0 0 0 0 1 0 0 0 0 0 1 0 0 0 0 0 0.7 0 "
         id="feColorMatrix4294" />
      <feComposite
         in="fbSourceGraphic"
         operator="out"
         in2="result5"
         id="feComposite4296" />
      <feMorphology
         operator="dilate"
         radius="1.3"
         result="result3"
         id="feMorphology4298" />
      <feTurbulence
         result="result91"
         numOctaves="8"
         baseFrequency="0.08 0.05"
         type="turbulence"
         seed="25"
         id="feTurbulence4300" />
      <feDisplacementMap
         in="result3"
         xChannelSelector="R"
         yChannelSelector="G"
         scale="5"
         result="result4"
         in2="result91"
         id="feDisplacementMap4302" />
      <feSpecularLighting
         in="result4"
         result="result1"
         lighting-color="rgb(255,255,255)"
         surfaceScale="2"
         specularConstant="1"
         specularExponent="35"
         id="feSpecularLighting4304">
        <feDistantLight
           elevation="75"
           azimuth="235"
           id="feDistantLight4306" />
      </feSpecularLighting>
      <feComposite
         in="result1"
         result="result2"
         operator="in"
         in2="result4"
         id="feComposite4308" />
      <feComposite
         in="result4"
         result="result4"
         operator="arithmetic"
         k2="1"
         k3="1"
         in2="result2"
         id="feComposite4310" />
      <feBlend
         result="fbSourceGraphic"
         mode="multiply"
         in2="result4"
         id="feBlend4312" />
      <feColorMatrix
         id="feColorMatrix4314"
         values="0 0 0 -1 0 0 0 0 -1 0 0 0 0 -1 0 0 0 0 1 0"
         in="fbSourceGraphic"
         result="fbSourceGraphicAlpha" />
      <feGaussianBlur
         stdDeviation="2"
         in="fbSourceGraphic"
         result="result1"
         id="feGaussianBlur4316" />
      <feTurbulence
         type="fractalNoise"
         baseFrequency="0.05"
         numOctaves="5"
         result="result0"
         id="feTurbulence4318" />
      <feDisplacementMap
         in="result1"
         xChannelSelector="R"
         yChannelSelector="G"
         scale="20"
         result="result2"
         in2="result0"
         id="feDisplacementMap4320" />
      <feGaussianBlur
         stdDeviation="5"
         in="result2"
         result="result4"
         id="feGaussianBlur4322" />
      <feComposite
         operator="arithmetic"
         in="result0"
         k2="0.5"
         k3="1"
         k1="1"
         result="result6"
         in2="result4"
         id="feComposite4324" />
      <feComposite
         result="result91"
         operator="in"
         in="result6"
         in2="result0"
         id="feComposite4326" />
      <feComposite
         result="fbSourceGraphic"
         in="result2"
         k1="1.5"
         operator="arithmetic"
         in2="result91"
         id="feComposite4328" />
      <feColorMatrix
         id="feColorMatrix4330"
         values="0 0 0 -1 0 0 0 0 -1 0 0 0 0 -1 0 0 0 0 1 0"
         in="fbSourceGraphic"
         result="fbSourceGraphicAlpha" />
      <feTurbulence
         in="fbSourceGraphic"
         result="result0"
         baseFrequency="0.037"
         numOctaves="3"
         id="feTurbulence4332" />
      <feSpecularLighting
         result="result1"
         specularConstant="1"
         surfaceScale="2"
         specularExponent="24.3"
         id="feSpecularLighting4334">
        <feDistantLight
           azimuth="225"
           elevation="45"
           id="feDistantLight4336" />
      </feSpecularLighting>
      <feDiffuseLighting
         result="result92"
         diffuseConstant="1.21"
         surfaceScale="3"
         in="result0"
         id="feDiffuseLighting4338">
        <feDistantLight
           elevation="42"
           azimuth="225"
           id="feDistantLight4340" />
      </feDiffuseLighting>
      <feBlend
         result="result91"
         mode="multiply"
         in2="fbSourceGraphic"
         id="feBlend4342" />
      <feComposite
         result="result93"
         k3="1"
         k2="1"
         in="result1"
         operator="arithmetic"
         in2="result91"
         id="feComposite4344" />
      <feComposite
         result="result2"
         operator="in"
         in2="fbSourceGraphicAlpha"
         id="feComposite4346" />
    </filter>
    <linearGradient
       id="linearGradient556">
      <stop
         id="stop4732"
         stop-color="#cc955d"
         offset="0" />
      <stop
         id="stop4734"
         stop-color="#ffdf32"
         offset="1" />
    </linearGradient>
    <linearGradient
       y2="812.9265"
       y1="812.92838"
       x2="26.965686"
       x1="121.01469"
       spreadMethod="reflect"
       id="linearGradient562"
       gradientTransform="scale(2.1029999,0.4755112)"
       gradientUnits="userSpaceOnUse">
      <stop
         id="stop4737"
         stop-color="#cc5a5d"
         offset="0" />
      <stop
         id="stop4739"
         stop-color="#ffb712"
         offset="1" />
    </linearGradient>
    <linearGradient
       y2="263.85469"
       y1="261.13278"
       xlink:href="#linearGradient556"
       x2="68.627635"
       x1="226.28926"
       spreadMethod="reflect"
       id="linearGradient561"
       gradientTransform="scale(1.1364462,0.87993603)"
       gradientUnits="userSpaceOnUse" />
    <radialGradient
       xlink:href="#linearGradient556"
       r="105.41189"
       id="radialGradient559"
       cy="299.07502"
       cx="122.40456"
       gradientTransform="scale(1.0383992,0.96302079)"
       fx="122.40456"
       fy="299.07502"
       gradientUnits="userSpaceOnUse" />
    <radialGradient
       xlink:href="#linearGradient556"
       r="44.678571"
       id="radialGradient560"
       cy="47.868839"
       cx="215.97932"
       gradientTransform="scale(1.0665626,0.93759145)"
       fx="215.97932"
       fy="47.868839"
       gradientUnits="userSpaceOnUse" />
    <linearGradient
       inkscape:collect="always"
       xlink:href="#linearGradient4235"
       id="linearGradient4241"
       x1="451.51547"
       y1="448.70755"
       x2="458.58655"
       y2="-11.922"
       gradientUnits="userSpaceOnUse" />
  </defs>
  <metadata
     id="metadata7">
    <rdf:RDF>
      <cc:Work
         rdf:about="">
        <dc:format>image/svg+xml</dc:format>
        <dc:type
           rdf:resource="http://purl.org/dc/dcmitype/StillImage" />
        <dc:title />
      </cc:Work>
    </rdf:RDF>
  </metadata>
  <g
     transform="translate(-157.5838,-173.5295)"
     style="display:inline;opacity:1"
     inkscape:label="shape"
     id="layer2"
     inkscape:groupmode="layer">
    <circle
       r="153.93269"
       cy="332.17679"
       cx="337"
       id="path4236"
       style="display:inline;opacity:0.655;fill:#decd87;stroke:none;stroke-width:2.13460994" />
    <g
       id="g4744"
       transform="matrix(0.48508413,0,0,0.48508413,219.7922,210.15186)"
       style="stroke:#000000;stroke-width:10;stroke-linejoin:round">
      <path
         id="path4746"
         transform="matrix(0.8094,-0.58726,0.58726,0.8094,-133.7599,168.1424)"
         d="m 71.2025,379.747 c 3.9558,64.082 393.1965,47.468 384.4935,3.955 20.57,-16.614 -258.703,-80.696 -384.4935,-3.955 z"
         inkscape:connector-curvature="0"
         style="fill:#c87137;fill-rule:evenodd;stroke:#000000;stroke-width:10;stroke-linejoin:round" />
      <path
         id="path4748"
         transform="matrix(0.8094,-0.58726,0.58726,0.8094,-112.6265,202.6584)"
         d="m 170.095,371.836 c -70.4114,0 -65.665,-92.564 -3.956,-93.355 62.5,0 79.114,94.146 3.956,93.355 z"
         inkscape:connector-curvature="0"
         style="fill:#ff7f2a;fill-rule:evenodd;stroke:#000000;stroke-width:10;stroke-linejoin:round" />
      <path
         id="path4750"
         transform="matrix(0.8094,-0.58726,0.58726,0.8094,-133.7599,168.1424)"
         d="M 71.2026,378.956 C 185.918,312.5 430.38,354.43 457.278,382.911 414.557,321.994 382.121,292.722 371.836,219.936 354.431,125.792 321.203,92.5629 257.912,86.2345 198.576,90.9809 166.931,107.595 154.272,199.367 141.613,291.139 113.924,331.488 71.2026,378.956 Z"
         inkscape:connector-curvature="0"
         style="fill:#c87137;fill-rule:evenodd;stroke:#000000;stroke-width:10;stroke-linejoin:round" />
      <path
         id="path4752"
         transform="matrix(0.8094,-0.58726,0.58726,0.8094,-133.7599,168.1424)"
         d="m 255.538,87.0252 c -32.437,0 -36.392,-37.9747 -3.956,-41.1393 33.228,0.7912 34.019,39.557 3.956,41.1393 z"
         inkscape:connector-curvature="0"
         style="fill:#c87137;fill-rule:evenodd;stroke:#000000;stroke-width:10;stroke-linejoin:round" />
      <path
         id="path4754"
         d="m 354.43,174.051 c -31.646,0 -153.481,36.392 -185.917,126.582"
         inkscape:connector-curvature="0"
         style="fill:none;stroke:#000000;stroke-width:10;stroke-linejoin:round" />
    </g>
  </g>
  <g
     transform="translate(-157.5838,-173.5295)"
     style="display:inline"
     id="layer1"
     inkscape:groupmode="layer"
     inkscape:label="laurel">
    <g
       transform="translate(-113.11436,49.080926)"
       id="g4160"
       style="fill-opacity:1;fill:url(#linearGradient4241)">
      <g
         style="fill:url(#linearGradient4241);fill-opacity:1"
         id="g4162">
        <path
           inkscape:connector-curvature="0"
           d="m 569.38574,394.10938 c -10.77441,2.88525 -22.27148,3.81298 -32.73535,7.38134 17.72266,-15.1958 16.71094,-38.70849 28.53516,-56.60595 3.7666,-5.06739 6.87988,-10.37891 11.2705,-15.1875 -7.19238,14.42773 -4.07324,33.14648 -12.33593,47.14746 -3.18067,5.56152 -7.72949,10.95703 -12.75977,15.32519 1.64356,-0.0615 3.08203,-1.48437 4.52735,-2.43457 13.42089,-13.39258 30.9541,-17.13769 45.47168,-28.01855 5.81542,-4.63379 11.1416,-10.70606 13.69824,-17.27344 -2.74707,22.21973 -24.85254,43.0459 -45.67188,49.66602 l 0,0 z"
           id="path4164"
           style="fill-opacity:1;fill:url(#linearGradient4241)" />
        <path
           inkscape:connector-curvature="0"
           d="m 617.73535,304.14551 c -6.5664,9.34375 -14.50976,18.04199 -20.57617,27.53808 0.67676,-7.51855 1.56738,-16.76367 -1.36133,-23.88574 -5.07519,-15.33691 -9.53418,-30.90918 -10.97265,-47.74121 l 0.19824,-6.43652 c 3.81933,17.18945 20.70508,29.00586 19.63965,48.28711 0.38671,4.67285 -1.0586,8.6455 -1.9336,12.75488 l 0.29004,0.30371 0.76074,-0.85254 c 2.50391,-9.45801 3.76758,-19.40332 7.66114,-28.22754 5.5332,-12.69824 12.44238,-25.51367 9.62695,-40.8457 8.41602,18.07617 5.86621,42.22754 -3.33301,59.10547 l 0,0 z"
           id="path4166"
           style="fill-opacity:1;fill:url(#linearGradient4241)" />
        <path
           inkscape:connector-curvature="0"
           d="m 607.37109,206.75781 c 11.07227,15.00537 13.49903,38.91797 5.43457,56.12989 -3.00586,7.29394 -5.1289,15.0664 -6.30957,23.13964 -0.56347,-1.39257 -0.69238,-3.26464 -1.19531,-4.8164 -4.4043,-16.84766 -20.33789,-28.85449 -26.89062,-44.73877 -2.07813,-5.19434 -3.84961,-10.56153 -4.83203,-16.2002 7.00195,12.9502 24.25781,19.63916 28.96093,33.91065 1.92676,3.60937 1.81836,8.11914 3.01367,12 0.25098,0 0.50196,-0.18653 0.50196,-0.44141 -2.07031,-14.70117 -1.43848,-30.0874 0.55664,-44.60596 -0.11524,-7.86425 -0.88281,-15.49267 -5.25195,-21.58007 2.80175,1.63232 4.06347,4.76757 6.01171,7.20263 l 0,0 z"
           id="path4168"
           style="fill-opacity:1;fill:url(#linearGradient4241)" />
        <path
           inkscape:connector-curvature="0"
           d="m 599.56445,203.87744 c 2.90821,13.14893 -1.33984,25.95459 1.33203,39.22998 l -0.0996,0.11426 c -7.15333,-14.06641 -22.33985,-20.70508 -32.78907,-31.96338 -6.05566,-6.68066 -8.68847,-14.82275 -10.20312,-23.44385 5.9873,14.43457 22.14355,17.61524 31.41894,29.77881 3.10352,2.8042 4.11621,6.68897 6.11719,9.86914 l 0.32715,-0.31592 c -5.33399,-11.38671 -7.1211,-24.20117 -10.84277,-36.34521 -1.86329,-5.26221 -5.56153,-10.43262 -10.52344,-13.75049 12.17578,2.48828 22.72851,15.19971 25.26269,26.82666 l 0,0 z"
           id="path4170"
           style="fill-opacity:1;fill:url(#linearGradient4241)" />
        <path
           inkscape:connector-curvature="0"
           d="m 567.01172,173.72168 c 9.16992,8.20703 13.31738,18.8335 15.99512,29.84375 l 1.51464,3.49658 c -13.30957,-9.57226 -25.40039,-22.43994 -33.89941,-36.02978 l -10.37988,-10.50098 c 9.125,3.86914 18.96289,6.17871 26.76953,13.19043 l 0,0 z"
           id="path4172"
           style="fill-opacity:1;fill:url(#linearGradient4241)" />
        <path
           inkscape:connector-curvature="0"
           d="m 356.80566,162.27393 c -9.20019,8.06543 -15.58105,18.26562 -22.40625,27.77734 -6.11816,7.57519 -13.94433,12.57031 -20.87988,19.08447 3.74414,-7.76172 3.88086,-17.0332 9.19141,-24.16308 7.55664,-13.1836 21.56933,-17.82178 34.09472,-22.69873 l 0,0 z"
           id="path4174"
           style="fill-opacity:1;fill:url(#linearGradient4241)" />
        <path
           inkscape:connector-curvature="0"
           d="m 306.49219,190.35986 c 4.47461,-5.5625 10.14746,-9.42822 16.53125,-11.06054 -12.39551,8.51513 -11.58887,23.7749 -15.51856,36.46045 -1.25293,4.69091 -3.42871,9.01269 -4.51269,13.82128 l 0.31543,0.25098 c 2.0625,-5.43603 5.6875,-10.57226 10.21191,-15.00781 8.80371,-8.12695 21.82715,-13.1919 26.1416,-25.21387 -0.19726,16.70606 -14.13379,29.83985 -27.46875,39.22901 -5.49902,4.82421 -10.80175,10.32226 -13.83008,16.52392 -0.29687,-4.21484 0.62305,-8.44678 0.32325,-12.96191 -1.4502,-14.5835 -2.50391,-31.22901 7.80664,-42.04151 l 0,0 z"
           id="path4176"
           style="fill-opacity:1;fill:url(#linearGradient4241)" />
        <path
           inkscape:connector-curvature="0"
           d="m 281.41211,240.22754 c -0.37305,-14.77832 5.76074,-26.8418 14.4043,-37.85303 0.25097,-0.12549 0.42968,-0.37646 0.75293,-0.31592 -9.51465,14.4585 -1.64356,32.67041 -2.07715,49.11036 l -1.25489,16.83203 c 0.18653,0.12207 0.18653,0.62793 0.62793,0.43359 0.5625,-1.87598 0.68457,-3.88086 1.06055,-5.81055 2.24121,-13.57714 14.03223,-23.21093 24.33106,-32.59375 2.19921,-2.4541 4.14355,-4.9458 5.27343,-7.82568 -0.84082,6.76025 -2.95996,13.57861 -5.76464,19.83057 -8.01563,15.63183 -22.82325,28.458 -25.52833,46.35449 -1.3125,-17.15039 -12.98925,-29.97266 -11.82519,-48.16211 l 0,0 z"
           id="path4178"
           style="fill-opacity:1;fill:url(#linearGradient4241)" />
        <path
           inkscape:connector-curvature="0"
           d="m 274.21387,261.24316 c 1.06543,-4.62207 1.87988,-9.40527 3.8916,-13.64648 -3.81152,19.53711 9.3291,33.61426 13.63965,50.54883 1.80371,6.33398 2.24511,13.13672 4.82422,19.08008 0.24023,0.12988 0.44921,-0.1211 0.59765,-0.31153 -6.41797,-17.98926 2.84668,-34.70605 12.15625,-48.79101 2.26367,-3.81641 3.56836,-8.06641 4.69434,-12.45313 0.98926,8.1416 -1.06934,17.51758 -2.25195,25.97071 -2.26368,10.75585 -5.64258,20.95605 -8.58399,31.39257 -1.93555,6.52149 -1.42676,13.87891 -0.43262,20.71192 L 301.81641,333 c -6.8252,-12.58594 -20.33985,-22.40234 -24.35352,-36.15234 -3.30273,-10.96192 -5.49805,-23.66016 -3.24902,-35.6045 l 0,0 z"
           id="path4180"
           style="fill-opacity:1;fill:url(#linearGradient4241)" />
        <path
           inkscape:connector-curvature="0"
           d="m 273.59766,299.40137 c 1.50293,20.70801 23.77148,31.65039 34.09375,48.79394 2.44238,3.50782 4.56152,7.38867 7.82519,10.3252 -0.50976,-2.20606 -2.56836,-4.0625 -3.32422,-6.32227 -3.61133,-7.19043 -4.92773,-15.75879 -4.05957,-24.44922 1,-10.57714 5.43653,-20.39257 3.74317,-31.51757 9.07031,19.55664 6.31543,43.96679 11.38672,65.1582 1.32812,4.63476 4.01074,8.77344 5.76855,13.20312 -18.63574,-12.69238 -44.04687,-24.76855 -52.31445,-48.03027 -3.48438,-8.02051 -3.87305,-17.9502 -3.11914,-27.16113 l 0,0 z"
           id="path4182"
           style="fill-opacity:1;fill:url(#linearGradient4241)" />
        <path
           inkscape:connector-curvature="0"
           d="m 284.72949,346.95508 c 10.39063,23.50586 36.41406,25.45312 53.86231,39.7666 3.21093,2.8457 6.57519,5.26562 10.20019,6.9541 l 0.18653,-0.18945 c -4.00586,-3.62207 -8.63965,-7.74707 -11.44434,-12.44141 -10.21191,-14.19922 -6.62012,-34.08984 -14.27148,-49.36133 6.95214,8.31641 13.27441,16.96094 17.47168,26.39551 6.24316,15.40137 8.6289,32.79688 23.07519,44.43897 -15.63379,-5.15235 -33.94922,-3.71289 -47.74805,-13.33936 -15.0664,-9.25976 -28.51269,-24.96582 -31.33203,-42.22363 l 0,0 z"
           id="path4184"
           style="fill-opacity:1;fill:url(#linearGradient4241)" />
        <path
           inkscape:connector-curvature="0"
           d="m 311.43457,390.80664 c 16.66016,18.94775 43.88281,12.62549 66.0752,17.58447 3.13476,0.42774 6.0039,1.6836 9.32617,1.17383 -2.64551,-1.67383 -6.31641,-1.49219 -9.2041,-3.01367 -17.39551,-6.11133 -19.94727,-24.94385 -29.39063,-37.64307 12.06445,8.01172 22.20703,18.81739 33.33692,29.2876 8,7.00781 17.62988,10.24219 27.77636,12.30469 -2.43847,0.89062 -5.63476,0.64648 -8.25195,1.33203 -18.22852,4.48242 -38.48047,11.80859 -57.81152,5.25 -12.56739,-3.95703 -25.53321,-13.89453 -31.85645,-26.27588 l 0,0 z"
           id="path4186"
           style="fill-opacity:1;fill:url(#linearGradient4241)" />
        <path
           inkscape:connector-curvature="0"
           d="m 537.55664,434.97314 c -18.77344,7.00586 -38.36621,-0.32031 -53.0293,-11.43945 -5.93652,-3.77344 -11.16992,-9.20703 -18.84863,-8.72656 -2.78516,-0.0527 -5.4707,0.084 -7.83789,0.76758 14.24512,6.6289 27.47754,15.76758 39.57617,27.45508 -2.03906,2.32812 -4.67969,4.50585 -7.16699,6.51367 -11.65918,-12.5625 -24.57129,-24.6543 -39.02832,-31.7168 -2.83105,0.36719 -5.52441,2.07031 -8.07715,3.44141 -11.76953,7.4414 -23.40723,17.01367 -32.15723,28.73242 l -7.51855,-6.20899 c 12,-12.13867 25.27344,-21.58789 39.79395,-28.33789 -14.26856,-4.51953 -23.58204,7.4336 -34.41309,13.51368 -12.62109,8.8125 -30.77246,12.95117 -46.02539,6.87109 -8.20313,-3.11133 -16.15039,-7.69336 -22.08984,-15.14063 12.0039,8.26954 29.88183,9.13672 43.5332,3.76563 18.31836,-7.94531 37.35351,-18.01758 59.43652,-13.20117 3.44629,0.0605 6.79492,3.49218 10.05078,0.57031 16.41309,-4.26172 34.99512,-1.33203 49.12598,6.16992 l 14.56445,5.83789 c 13.53711,5.00586 31.03907,3.6211 42.64258,-4.62695 -5.96582,7.42578 -14.11523,12.74609 -22.53125,15.75976 l 0,0 z"
           id="path4188"
           style="fill-opacity:1;fill:url(#linearGradient4241)" />
        <path
           inkscape:connector-curvature="0"
           d="m 557.6748,415.57471 c -21.07812,7.95898 -42.2832,-1.81055 -62.47949,-5.07422 l -3.88867,-0.49414 0,-0.12305 c 9.65723,-2.19141 19.03125,-5.06641 26.71777,-12.00586 11.32129,-10.88232 21.39551,-22.08349 33.96778,-30.65869 -9.32324,11.9541 -10.31153,28.96924 -25.71289,36.65479 -3.81153,2.49414 -8.62207,2.93554 -12.55567,4.82421 5.60938,0.1211 10.74512,-1.88867 16.29981,-2.45117 20.65234,-3.24219 44.27832,0.084 58.7666,-17.50928 -5.37891,12.25928 -18.84961,22.52491 -31.11524,26.83741 l 0,0 z"
           id="path4190"
           style="fill-opacity:1;fill:url(#linearGradient4241)" />
        <path
           inkscape:connector-curvature="0"
           d="m 595.97266,356.26855 c -8.32422,5.44825 -16.76172,10.50098 -24.76075,16.69532 l 0,-0.76074 c 12.25196,-20.36231 6.2627,-48.33497 13.81153,-70.74415 l 2.81543,-7.50683 c -1.5752,13.95996 4.48828,25.78515 4.0625,39.79297 -0.42578,8.46191 -3.1875,15.96484 -7.63086,22.72168 l 0.75293,0 c 6.00293,-7.88379 10.69043,-16.26856 17.70605,-23.77832 10.88965,-10.50098 21.96094,-21.26856 23.39063,-35.84082 3.69824,24.32714 -9.95215,45.64843 -30.14746,59.42089 l 0,0 z"
           id="path4192"
           style="fill-opacity:1;fill:url(#linearGradient4241)" />
      </g>
    </g>
  </g>
  <g
     transform="translate(-157.5838,-173.5295)"
     inkscape:label="icon"
     id="layer3"
     inkscape:groupmode="layer">
    <g
       id="g4672"
       transform="matrix(1.1463362,0,0,1.1463362,-526.9602,128.03529)" />
  </g>
</svg>
